<svg width="123" height="138" viewBox="0 0 123 138" fill="none" xmlns="http://www.w3.org/2000/svg">
<g clip-path="url(#clip0_202_13)">
<path d="M116.362 62.2801C118.977 60.1616 122.88 62.0227 122.88 65.3882V85.9126C122.88 87.1191 122.335 88.2612 121.398 89.0207L63.9579 135.553C62.4899 136.742 60.3901 136.742 58.9221 135.553L1.48211 89.0207C0.544608 88.2612 0 87.1191 0 85.9126V65.3882C0 62.0227 3.90282 60.1616 6.51786 62.2801L58.9221 104.732C60.3901 105.921 62.4899 105.921 63.9579 104.732L116.362 62.2801Z" fill="white"/>
</g>
<g clip-path="url(#clip1_202_13)">
<path d="M116.362 5.28006C118.977 3.16164 122.88 5.02275 122.88 8.38817V28.9126C122.88 30.1191 122.335 31.2612 121.398 32.0207L63.9579 78.5532C62.4899 79.7425 60.3901 79.7425 58.9221 78.5532L1.48211 32.0207C0.544608 31.2612 0 30.1191 0 28.9126V8.38817C0 5.02274 3.90282 3.16164 6.51786 5.28006L58.9221 47.7323C60.3901 48.9215 62.4899 48.9215 63.9579 47.7323L116.362 5.28006Z" fill="white"/>
</g>
<defs>
<clipPath id="clip0_202_13">
<rect width="122.88" height="80.593" fill="white" transform="translate(0 57)"/>
</clipPath>
<clipPath id="clip1_202_13">
<rect width="122.88" height="80.593" fill="white"/>
</clipPath>
</defs>
</svg>
