<svg width="1945" height="880" viewBox="0 0 1945 880" fill="none" xmlns="http://www.w3.org/2000/svg">
<rect width="1945" height="880" fill="black"/>
<g clip-path="url(#clip0_187_16)">
<rect x="532" y="62" width="2043" height="942" fill="black"/>
<path fill-rule="evenodd" clip-rule="evenodd" d="M1458.65 327C1394.7 327 1343 379.021 1343 443.378C1343 494.822 1376.13 538.368 1422.08 553.78C1427.83 554.939 1429.93 551.276 1429.93 548.195C1429.93 545.497 1429.74 536.249 1429.74 526.613C1397.57 533.551 1390.87 512.74 1390.87 512.74C1385.7 499.253 1378.04 495.786 1378.04 495.786C1367.51 488.657 1378.81 488.657 1378.81 488.657C1390.49 489.428 1396.62 500.603 1396.62 500.603C1406.95 518.328 1423.61 513.32 1430.31 510.236C1431.27 502.722 1434.34 497.52 1437.59 494.63C1411.93 491.932 1384.94 481.913 1384.94 437.211C1384.94 424.494 1389.53 414.09 1396.81 405.998C1395.66 403.109 1391.63 391.161 1397.96 375.169C1397.96 375.169 1407.72 372.086 1429.74 387.115C1439.17 384.567 1448.89 383.271 1458.65 383.261C1468.42 383.261 1478.37 384.611 1487.57 387.115C1509.59 372.086 1519.35 375.169 1519.35 375.169C1525.67 391.161 1521.65 403.109 1520.5 405.998C1527.97 414.09 1532.37 424.494 1532.37 437.211C1532.37 481.913 1505.38 491.738 1479.52 494.63C1483.74 498.29 1487.38 505.226 1487.38 516.209C1487.38 531.815 1487.19 544.341 1487.19 548.193C1487.19 551.276 1489.29 554.939 1495.04 553.782C1540.99 538.365 1574.12 494.822 1574.12 443.378C1574.31 379.021 1522.42 327 1458.65 327Z" fill="white"/>
</g>
<path d="M346.909 458.273L346.818 451.636H347.909L363.182 436.091H369.818L353.545 452.545H353.091L346.909 458.273ZM341.909 471V424.455H347.273V471H341.909ZM364.091 471L350.455 453.727L354.273 450L370.909 471H364.091ZM376.722 471V436.091H381.903V441.364H382.267C382.903 439.636 384.055 438.235 385.722 437.159C387.388 436.083 389.267 435.545 391.358 435.545C391.752 435.545 392.244 435.553 392.835 435.568C393.426 435.583 393.873 435.606 394.176 435.636V441.091C393.994 441.045 393.578 440.977 392.926 440.886C392.29 440.78 391.616 440.727 390.903 440.727C389.206 440.727 387.691 441.083 386.358 441.795C385.04 442.492 383.994 443.462 383.222 444.705C382.464 445.932 382.085 447.333 382.085 448.909V471H376.722ZM400.534 471V436.091H405.898V471H400.534ZM403.261 430.273C402.216 430.273 401.314 429.917 400.557 429.205C399.814 428.492 399.443 427.636 399.443 426.636C399.443 425.636 399.814 424.78 400.557 424.068C401.314 423.356 402.216 423 403.261 423C404.307 423 405.201 423.356 405.943 424.068C406.701 424.78 407.08 425.636 407.08 426.636C407.08 427.636 406.701 428.492 405.943 429.205C405.201 429.917 404.307 430.273 403.261 430.273ZM440.449 443.909L435.631 445.273C435.328 444.47 434.881 443.689 434.29 442.932C433.714 442.159 432.926 441.523 431.926 441.023C430.926 440.523 429.646 440.273 428.085 440.273C425.949 440.273 424.169 440.765 422.744 441.75C421.335 442.72 420.631 443.955 420.631 445.455C420.631 446.788 421.116 447.841 422.085 448.614C423.055 449.386 424.57 450.03 426.631 450.545L431.812 451.818C434.934 452.576 437.259 453.735 438.79 455.295C440.32 456.841 441.085 458.833 441.085 461.273C441.085 463.273 440.509 465.061 439.358 466.636C438.222 468.212 436.631 469.455 434.585 470.364C432.54 471.273 430.161 471.727 427.449 471.727C423.888 471.727 420.941 470.955 418.608 469.409C416.275 467.864 414.797 465.606 414.176 462.636L419.267 461.364C419.752 463.242 420.669 464.652 422.017 465.591C423.381 466.53 425.161 467 427.358 467C429.858 467 431.843 466.47 433.312 465.409C434.797 464.333 435.54 463.045 435.54 461.545C435.54 460.333 435.116 459.318 434.267 458.5C433.419 457.667 432.116 457.045 430.358 456.636L424.54 455.273C421.343 454.515 418.994 453.341 417.494 451.75C416.009 450.144 415.267 448.136 415.267 445.727C415.267 443.758 415.82 442.015 416.926 440.5C418.047 438.985 419.57 437.795 421.494 436.932C423.434 436.068 425.631 435.636 428.085 435.636C431.54 435.636 434.252 436.394 436.222 437.909C438.206 439.424 439.616 441.424 440.449 443.909ZM454.159 458.273L454.068 451.636H455.159L470.432 436.091H477.068L460.795 452.545H460.341L454.159 458.273ZM449.159 471V424.455H454.523V471H449.159ZM471.341 471L457.705 453.727L461.523 450L478.159 471H471.341ZM491.881 471L481.244 436.091H486.881L494.426 462.818H494.79L502.244 436.091H507.972L515.335 462.727H515.699L523.244 436.091H528.881L518.244 471H512.972L505.335 444.182H504.79L497.153 471H491.881ZM552.244 424.455V471H546.608V430.364H546.335L534.972 437.909V432.182L546.608 424.455H552.244ZM580.449 423.818C582.358 423.833 584.267 424.197 586.176 424.909C588.085 425.621 589.828 426.803 591.403 428.455C592.979 430.091 594.244 432.326 595.199 435.159C596.153 437.992 596.631 441.545 596.631 445.818C596.631 449.955 596.237 453.629 595.449 456.841C594.676 460.038 593.555 462.735 592.085 464.932C590.631 467.129 588.858 468.795 586.767 469.932C584.691 471.068 582.343 471.636 579.722 471.636C577.116 471.636 574.79 471.121 572.744 470.091C570.714 469.045 569.047 467.598 567.744 465.75C566.456 463.886 565.631 461.727 565.267 459.273H570.812C571.312 461.409 572.305 463.174 573.79 464.568C575.29 465.947 577.267 466.636 579.722 466.636C583.313 466.636 586.146 465.068 588.222 461.932C590.313 458.795 591.358 454.364 591.358 448.636H590.994C590.146 449.909 589.138 451.008 587.972 451.932C586.805 452.856 585.509 453.568 584.085 454.068C582.661 454.568 581.146 454.818 579.54 454.818C576.873 454.818 574.426 454.159 572.199 452.841C569.987 451.508 568.214 449.682 566.881 447.364C565.562 445.03 564.903 442.364 564.903 439.364C564.903 436.515 565.54 433.909 566.812 431.545C568.1 429.167 569.903 427.273 572.222 425.864C574.555 424.455 577.297 423.773 580.449 423.818ZM580.449 428.818C578.54 428.818 576.82 429.295 575.29 430.25C573.775 431.189 572.57 432.462 571.676 434.068C570.797 435.659 570.358 437.424 570.358 439.364C570.358 441.303 570.782 443.068 571.631 444.659C572.494 446.235 573.669 447.492 575.153 448.432C576.653 449.356 578.358 449.818 580.267 449.818C581.706 449.818 583.047 449.538 584.29 448.977C585.532 448.402 586.616 447.621 587.54 446.636C588.479 445.636 589.214 444.508 589.744 443.25C590.275 441.977 590.54 440.652 590.54 439.273C590.54 437.455 590.1 435.75 589.222 434.159C588.358 432.568 587.161 431.28 585.631 430.295C584.116 429.311 582.388 428.818 580.449 428.818ZM620.386 423.818C622.295 423.833 624.205 424.197 626.114 424.909C628.023 425.621 629.765 426.803 631.341 428.455C632.917 430.091 634.182 432.326 635.136 435.159C636.091 437.992 636.568 441.545 636.568 445.818C636.568 449.955 636.174 453.629 635.386 456.841C634.614 460.038 633.492 462.735 632.023 464.932C630.568 467.129 628.795 468.795 626.705 469.932C624.629 471.068 622.28 471.636 619.659 471.636C617.053 471.636 614.727 471.121 612.682 470.091C610.652 469.045 608.985 467.598 607.682 465.75C606.394 463.886 605.568 461.727 605.205 459.273H610.75C611.25 461.409 612.242 463.174 613.727 464.568C615.227 465.947 617.205 466.636 619.659 466.636C623.25 466.636 626.083 465.068 628.159 461.932C630.25 458.795 631.295 454.364 631.295 448.636H630.932C630.083 449.909 629.076 451.008 627.909 451.932C626.742 452.856 625.447 453.568 624.023 454.068C622.598 454.568 621.083 454.818 619.477 454.818C616.811 454.818 614.364 454.159 612.136 452.841C609.924 451.508 608.152 449.682 606.818 447.364C605.5 445.03 604.841 442.364 604.841 439.364C604.841 436.515 605.477 433.909 606.75 431.545C608.038 429.167 609.841 427.273 612.159 425.864C614.492 424.455 617.235 423.773 620.386 423.818ZM620.386 428.818C618.477 428.818 616.758 429.295 615.227 430.25C613.712 431.189 612.508 432.462 611.614 434.068C610.735 435.659 610.295 437.424 610.295 439.364C610.295 441.303 610.72 443.068 611.568 444.659C612.432 446.235 613.606 447.492 615.091 448.432C616.591 449.356 618.295 449.818 620.205 449.818C621.644 449.818 622.985 449.538 624.227 448.977C625.47 448.402 626.553 447.621 627.477 446.636C628.417 445.636 629.152 444.508 629.682 443.25C630.212 441.977 630.477 440.652 630.477 439.273C630.477 437.455 630.038 435.75 629.159 434.159C628.295 432.568 627.098 431.28 625.568 430.295C624.053 429.311 622.326 428.818 620.386 428.818ZM660.324 423.818C662.233 423.833 664.142 424.197 666.051 424.909C667.96 425.621 669.703 426.803 671.278 428.455C672.854 430.091 674.119 432.326 675.074 435.159C676.028 437.992 676.506 441.545 676.506 445.818C676.506 449.955 676.112 453.629 675.324 456.841C674.551 460.038 673.43 462.735 671.96 464.932C670.506 467.129 668.733 468.795 666.642 469.932C664.566 471.068 662.218 471.636 659.597 471.636C656.991 471.636 654.665 471.121 652.619 470.091C650.589 469.045 648.922 467.598 647.619 465.75C646.331 463.886 645.506 461.727 645.142 459.273H650.688C651.188 461.409 652.18 463.174 653.665 464.568C655.165 465.947 657.142 466.636 659.597 466.636C663.188 466.636 666.021 465.068 668.097 461.932C670.188 458.795 671.233 454.364 671.233 448.636H670.869C670.021 449.909 669.013 451.008 667.847 451.932C666.68 452.856 665.384 453.568 663.96 454.068C662.536 454.568 661.021 454.818 659.415 454.818C656.748 454.818 654.301 454.159 652.074 452.841C649.862 451.508 648.089 449.682 646.756 447.364C645.438 445.03 644.778 442.364 644.778 439.364C644.778 436.515 645.415 433.909 646.688 431.545C647.975 429.167 649.778 427.273 652.097 425.864C654.43 424.455 657.172 423.773 660.324 423.818ZM660.324 428.818C658.415 428.818 656.695 429.295 655.165 430.25C653.65 431.189 652.445 432.462 651.551 434.068C650.672 435.659 650.233 437.424 650.233 439.364C650.233 441.303 650.657 443.068 651.506 444.659C652.369 446.235 653.544 447.492 655.028 448.432C656.528 449.356 658.233 449.818 660.142 449.818C661.581 449.818 662.922 449.538 664.165 448.977C665.407 448.402 666.491 447.621 667.415 446.636C668.354 445.636 669.089 444.508 669.619 443.25C670.15 441.977 670.415 440.652 670.415 439.273C670.415 437.455 669.975 435.75 669.097 434.159C668.233 432.568 667.036 431.28 665.506 430.295C663.991 429.311 662.263 428.818 660.324 428.818Z" fill="white"/>
<defs>
<clipPath id="clip0_187_16">
<rect width="232" height="227" fill="white" transform="translate(1343 327)"/>
</clipPath>
</defs>
</svg>
